<svg class="main-svg" xmlns="http://www.w3.org/2000/svg" xmlns:xlink="http://www.w3.org/1999/xlink" width="700" height="450" style="" viewBox="0 0 700 450"><rect x="0" y="0" width="700" height="450" style="fill: rgb(255, 255, 255); fill-opacity: 1;"/><defs id="defs-01d471"><g class="clips"><clipPath id="clip01d471xyplot" class="plotclip"><rect width="541" height="330"/></clipPath><clipPath class="axesclip" id="clip01d471x"><rect x="60" y="0" width="541" height="450"/></clipPath><clipPath class="axesclip" id="clip01d471y"><rect x="0" y="60" width="700" height="330"/></clipPath><clipPath class="axesclip" id="clip01d471xy"><rect x="60" y="60" width="541" height="330"/></clipPath></g><g class="gradients"/></defs><g class="bglayer"/><g class="layer-below"><g class="imagelayer"/><g class="shapelayer"/></g><g class="cartesianlayer"><g class="subplot xy"><g class="layer-subplot"><g class="shapelayer"/><g class="imagelayer"/></g><g class="gridlayer"><g class="x"><path class="xgrid crisp" transform="translate(195.93,0)" d="M0,60v330" style="stroke: rgb(238, 238, 238); stroke-opacity: 1; stroke-width: 1px;"/><path class="xgrid crisp" transform="translate(331.86,0)" d="M0,60v330" style="stroke: rgb(238, 238, 238); stroke-opacity: 1; stroke-width: 1px;"/><path class="xgrid crisp" transform="translate(467.79,0)" d="M0,60v330" style="stroke: rgb(238, 238, 238); stroke-opacity: 1; stroke-width: 1px;"/></g><g class="y"><path class="ygrid crisp" transform="translate(0,310.69)" d="M60,0h541" style="stroke: rgb(238, 238, 238); stroke-opacity: 1; stroke-width: 1px;"/><path class="ygrid crisp" transform="translate(0,247.88)" d="M60,0h541" style="stroke: rgb(238, 238, 238); stroke-opacity: 1; stroke-width: 1px;"/><path class="ygrid crisp" transform="translate(0,185.07999999999998)" d="M60,0h541" style="stroke: rgb(238, 238, 238); stroke-opacity: 1; stroke-width: 1px;"/><path class="ygrid crisp" transform="translate(0,122.27000000000001)" d="M60,0h541" style="stroke: rgb(238, 238, 238); stroke-opacity: 1; stroke-width: 1px;"/></g></g><g class="zerolinelayer"><path class="xzl zl crisp" transform="translate(60,0)" d="M0,60v330" style="stroke: rgb(68, 68, 68); stroke-opacity: 1; stroke-width: 1px;"/><path class="yzl zl crisp" transform="translate(0,373.5)" d="M60,0h541" style="stroke: rgb(68, 68, 68); stroke-opacity: 1; stroke-width: 1px;"/></g><path class="xlines-below"/><path class="ylines-below"/><g class="overlines-below"/><g class="xaxislayer-below"/><g class="yaxislayer-below"/><g class="overaxes-below"/><g class="plot" transform="translate(60, 60)" clip-path="url('#clip01d471xyplot')"><g class="scatterlayer mlayer"><g class="trace scatter trace5930aa" style="stroke-miterlimit: 2; opacity: 1;"><g class="fills"/><g class="errorbars"/><g class="lines"><path class="js-line" style="vector-effect: non-scaling-stroke; fill: none; stroke: rgb(31, 119, 180); stroke-opacity: 1; stroke-width: 2px; opacity: 1;" d="M0,313.5L0,16.5L2.72,16.64L135.93,24.33L138.65,24.57L176.71,28.73L179.43,29.11L209.33,34.13L212.05,34.71L231.08,39.55L233.8,40.37L252.83,47.07L255.55,48.18L271.86,55.9L274.58,57.37L288.17,65.62L290.89,67.46L304.48,77.77L307.2,80.07L320.79,92.88L323.51,95.71L337.11,111.29L339.82,114.7L353.42,133.2L356.14,137.18L372.45,162.96L375.17,167.53L402.35,215.61L405.07,220.42L421.38,247.53L424.1,251.6L434.97,265.94L437.69,268.96L445.85,276.47L448.57,278.44L456.72,282.72L459.44,283.65L467.6,285.16L470.32,285.33L483.91,284.97L486.63,284.84L502.94,284.84L505.66,284.98L541,286.98"/></g><g class="points"/><g class="text"/></g></g></g><g class="overplot"/><path class="xlines-above crisp" style="fill: none;" d="M0,0"/><path class="ylines-above crisp" style="fill: none;" d="M0,0"/><g class="overlines-above"/><g class="xaxislayer-above"><g class="xtick"><text text-anchor="middle" x="0" y="403" style="font-family: TOBESTRIPPEDOpen SansTOBESTRIPPED, verdana, arial, sans-serif; font-size: 12px; fill: rgb(68, 68, 68); fill-opacity: 1; white-space: pre;" transform="translate(60,0)">0</text></g><g class="xtick"><text text-anchor="middle" x="0" y="403" style="font-family: TOBESTRIPPEDOpen SansTOBESTRIPPED, verdana, arial, sans-serif; font-size: 12px; fill: rgb(68, 68, 68); fill-opacity: 1; white-space: pre;" transform="translate(195.93,0)">50</text></g><g class="xtick"><text text-anchor="middle" x="0" y="403" style="font-family: TOBESTRIPPEDOpen SansTOBESTRIPPED, verdana, arial, sans-serif; font-size: 12px; fill: rgb(68, 68, 68); fill-opacity: 1; white-space: pre;" transform="translate(331.86,0)">100</text></g><g class="xtick"><text text-anchor="middle" x="0" y="403" style="font-family: TOBESTRIPPEDOpen SansTOBESTRIPPED, verdana, arial, sans-serif; font-size: 12px; fill: rgb(68, 68, 68); fill-opacity: 1; white-space: pre;" transform="translate(467.79,0)">150</text></g></g><g class="yaxislayer-above"><g class="ytick"><text text-anchor="end" x="59" y="4.199999999999999" style="font-family: TOBESTRIPPEDOpen SansTOBESTRIPPED, verdana, arial, sans-serif; font-size: 12px; fill: rgb(68, 68, 68); fill-opacity: 1; white-space: pre;" transform="translate(0,373.5)">0</text></g><g class="ytick"><text text-anchor="end" x="59" y="4.199999999999999" style="font-family: TOBESTRIPPEDOpen SansTOBESTRIPPED, verdana, arial, sans-serif; font-size: 12px; fill: rgb(68, 68, 68); fill-opacity: 1; white-space: pre;" transform="translate(0,310.69)">10</text></g><g class="ytick"><text text-anchor="end" x="59" y="4.199999999999999" style="font-family: TOBESTRIPPEDOpen SansTOBESTRIPPED, verdana, arial, sans-serif; font-size: 12px; fill: rgb(68, 68, 68); fill-opacity: 1; white-space: pre;" transform="translate(0,247.88)">20</text></g><g class="ytick"><text text-anchor="end" x="59" y="4.199999999999999" style="font-family: TOBESTRIPPEDOpen SansTOBESTRIPPED, verdana, arial, sans-serif; font-size: 12px; fill: rgb(68, 68, 68); fill-opacity: 1; white-space: pre;" transform="translate(0,185.07999999999998)">30</text></g><g class="ytick"><text text-anchor="end" x="59" y="4.199999999999999" style="font-family: TOBESTRIPPEDOpen SansTOBESTRIPPED, verdana, arial, sans-serif; font-size: 12px; fill: rgb(68, 68, 68); fill-opacity: 1; white-space: pre;" transform="translate(0,122.27000000000001)">40</text></g></g><g class="overaxes-above"/></g></g><g class="polarlayer"/><g class="ternarylayer"/><g class="geolayer"/><g class="funnelarealayer"/><g class="pielayer"/><g class="treemaplayer"/><g class="sunburstlayer"/><g class="glimages"/><defs id="topdefs-01d471"><g class="clips"/><clipPath id="legend01d471"><rect width="76" height="29" x="0" y="0"/></clipPath></defs><g class="layer-above"><g class="imagelayer"/><g class="shapelayer"/></g><g class="infolayer"><g class="legend" pointer-events="all" transform="translate(611.82, 60)"><rect class="bg" shape-rendering="crispEdges" style="stroke: rgb(68, 68, 68); stroke-opacity: 1; fill: rgb(255, 255, 255); fill-opacity: 1; stroke-width: 0px;" width="76" height="29" x="0" y="0"/><g class="scrollbox" transform="translate(0, 0)" clip-path="url('#legend01d471')"><g class="groups"><g class="traces" style="opacity: 1;" transform="translate(0, 14.5)"><text class="legendtext user-select-none" text-anchor="start" style="font-family: TOBESTRIPPEDOpen SansTOBESTRIPPED, verdana, arial, sans-serif; font-size: 12px; fill: rgb(68, 68, 68); fill-opacity: 1; white-space: pre;" x="40" y="4.680000000000001">Loss</text><g class="layers" style="opacity: 1;"><g class="legendfill"/><g class="legendlines"><path class="js-line" d="M5,0h30" style="fill: none; stroke: rgb(31, 119, 180); stroke-opacity: 1; stroke-width: 2px;"/></g><g class="legendsymbols"><g class="legendpoints"/></g></g><rect class="legendtoggle" style="cursor: pointer; fill: rgb(0, 0, 0); fill-opacity: 0;" pointer-events="all" x="0" y="-9.5" width="70.5" height="19"/></g></g></g><rect class="scrollbar" rx="20" ry="3" width="0" height="0" style="fill: rgb(128, 139, 164); fill-opacity: 1;" x="0" y="0"/></g><g class="g-gtitle"><text class="gtitle" style="font-family: TOBESTRIPPEDOpen SansTOBESTRIPPED, verdana, arial, sans-serif; font-size: 17px; fill: rgb(68, 68, 68); opacity: 1; font-weight: normal; white-space: pre;" x="350" y="30" text-anchor="middle" dy="0em">training loss</text></g><g class="g-xtitle"><text class="xtitle" style="font-family: TOBESTRIPPEDOpen SansTOBESTRIPPED, verdana, arial, sans-serif; font-size: 14px; fill: rgb(68, 68, 68); opacity: 1; font-weight: normal; white-space: pre;" x="330.5" y="442" text-anchor="middle">epoch</text></g><g class="g-ytitle"><text class="ytitle" transform="rotate(-90,22,225)" style="font-family: TOBESTRIPPEDOpen SansTOBESTRIPPED, verdana, arial, sans-serif; font-size: 14px; fill: rgb(68, 68, 68); opacity: 1; font-weight: normal; white-space: pre;" x="22" y="225" text-anchor="middle">Loss</text></g></g></svg>